# xmcd CD database file
#
# Track frame offsets:
#	150
#	26792
#	47090
#	71214
#	91772
#	112724
#	134973
#	154296
#	170975
#	192027
#	213310
#	231057
#	257053
#	279377
#	304199
#
# Disc length: 4348 seconds
#
# Revision: 0
# Processed by: cddbd v1.5.2PL0 Copyright (c) Steve Scherf et al.
# Submitted via: CDex 1.51
#
DISCID=db10fa0f
DTITLE=Varios Intérpretes - Pura Salsa Disco 3
DYEAR=2010
DGENRE=Salsa
TTITLE0=Celia y Tito - Tito Puente and Celia Cruz
TTITLE1=Después de Hacer el Amor - Lalo Rodriguez
TTITLE2=Mujer - Frankie Ruiz
TTITLE3=Mírala Como se Menea - Oscar D'León
TTITLE4=Tú Me Haces Falta - Eddie Santiago
TTITLE5=Patron de Amor y Guerra - Amilcar Boscan
TTITLE6=Más Que Ayer - Andy Montañez
TTITLE7=Cuando Hacemos el Amor - David Pabón
TTITLE8=Hasta el Sol de Hoy - Edgar Joel
TTITLE9=O Ella o Yo - India
TTITLE10=Déjame Un Beso - Salsa Kids
TTITLE11=No Vale la Pena - Johnny Rivera and Ray Sepúlveda
TTITLE12=Una Canita Más - Orquesta La Solución
TTITLE13=Ser Amantes - Paquito Guzmán
TTITLE14=No Me Vuelvo a Enamorar - Tito Nieves
EXTD=YEAR: 2010
EXTT0=
EXTT1=
EXTT2=
EXTT3=
EXTT4=
EXTT5=
EXTT6=
EXTT7=
EXTT8=
EXTT9=
EXTT10=
EXTT11=
EXTT12=
EXTT13=
EXTT14=
PLAYORDER=
